<?xml version="1.0" encoding="utf-8"?>
<!-- Generator: Adobe Illustrator 28.0.0, SVG Export Plug-In . SVG Version: 6.00 Build 0)  -->
<svg version="1.1" id="Layer_1" xmlns="http://www.w3.org/2000/svg" xmlns:xlink="http://www.w3.org/1999/xlink" x="0px" y="0px"
	 viewBox="0 0 32 32" style="enable-background:new 0 0 32 32;" xml:space="preserve">
<style type="text/css">
	.st0{fill:#FFFFFF;}
</style>
<rect x="-0.25" width="32.25" height="32.25"/>
<path class="st0" d="M20.46,14.61h-9.17c-1.13,0.06-2.01,0.99-2.01,2.12c0,1.17,0.95,2.12,2.12,2.12h8.97
	c1.17,0,2.12-0.95,2.12-2.12C22.49,15.6,21.6,14.67,20.46,14.61z"/>
<g>
	<path class="st0" d="M20.46,14.61h-9.17c-1.13,0.06-2.01,0.99-2.01,2.12c0,1.17,0.95,2.12,2.12,2.12h8.97
		c1.17,0,2.12-0.95,2.12-2.12C22.49,15.6,21.6,14.67,20.46,14.61z"/>
	<path class="st0" d="M28.59,17.86c-0.33,4.25-2.74,8.04-6.46,10.14c-0.01,0.01-0.02,0.01-0.04,0.02c-0.13,0.07-0.24,0.13-0.35,0.19
		c-0.01,0.01-0.02,0.01-0.03,0.02c-0.31,0.12-0.63,0.17-0.96,0.15c-0.57-0.04-1.08-0.31-1.46-0.74c-0.37-0.43-0.55-0.98-0.51-1.55
		c0.05-0.66,0.41-1.26,0.96-1.62l0.05-0.05h0.04c0.06-0.03,0.13-0.07,0.19-0.1l0.02-0.01l0,0l0.01,0c2.48-1.4,4.09-3.93,4.31-6.77
		c0.36-4.68-3.16-8.78-7.84-9.14c-4.68-0.36-8.78,3.16-9.14,7.84c-0.25,3.31,1.46,6.49,4.36,8.1l0.03,0.02
		c0.04,0.02,0.07,0.04,0.12,0.06l0.01-0.01l0.12,0.08l0.12,0.06l0,0.02c0.59,0.44,0.92,1.15,0.86,1.88
		c-0.04,0.57-0.31,1.09-0.74,1.46c-0.39,0.33-0.88,0.51-1.39,0.51c-0.05,0-0.11,0-0.17-0.01c-0.21-0.02-0.41-0.06-0.6-0.13l-0.01,0
		l-0.04-0.02c-0.09-0.05-0.17-0.09-0.26-0.14L9.7,28.05c-4.36-2.42-6.93-7.18-6.55-12.15C3.7,8.89,9.84,3.63,16.85,4.16
		c1.7,0.13,3.32,0.59,4.8,1.34c1.48,0.75,2.8,1.79,3.91,3.08C27.78,11.16,28.85,14.46,28.59,17.86z"/>
</g>
</svg>
